<svg width="4143" height="303" viewBox="0 0 4143 303" fill="none" xmlns="http://www.w3.org/2000/svg">
<path d="M220.04 24.976V226H179.72V95.248L125.864 226H95.336L41.192 95.248V226H0.872002V24.976H46.664L110.6 174.448L174.536 24.976H220.04ZM410.527 66.448V226H369.919V205.84C364.735 212.752 357.919 218.224 349.471 222.256C341.215 226.096 332.191 228.016 322.399 228.016C309.919 228.016 298.879 225.424 289.279 220.24C279.679 214.864 272.095 207.088 266.527 196.912C261.151 186.544 258.463 174.256 258.463 160.048V66.448H298.783V154.288C298.783 166.96 301.951 176.752 308.287 183.664C314.623 190.384 323.263 193.744 334.207 193.744C345.343 193.744 354.079 190.384 360.415 183.664C366.751 176.752 369.919 166.96 369.919 154.288V66.448H410.527ZM511.366 228.592C498.31 228.592 486.598 226.288 476.23 221.68C465.862 216.88 457.606 210.448 451.462 202.384C445.51 194.32 442.246 185.392 441.67 175.6H482.278C483.046 181.744 486.022 186.832 491.206 190.864C496.582 194.896 503.206 196.912 511.078 196.912C518.758 196.912 524.71 195.376 528.934 192.304C533.35 189.232 535.558 185.296 535.558 180.496C535.558 175.312 532.87 171.472 527.494 168.976C522.31 166.288 513.958 163.408 502.438 160.336C490.534 157.456 480.742 154.48 473.062 151.408C465.574 148.336 459.046 143.632 453.478 137.296C448.102 130.96 445.414 122.416 445.414 111.664C445.414 102.832 447.91 94.768 452.902 87.472C458.086 80.176 465.382 74.416 474.79 70.192C484.39 65.968 495.622 63.856 508.486 63.856C527.494 63.856 542.662 68.656 553.99 78.256C565.318 87.664 571.558 100.432 572.71 116.56H534.118C533.542 110.224 530.854 105.232 526.054 101.584C521.446 97.744 515.206 95.824 507.334 95.824C500.038 95.824 494.374 97.168 490.342 99.856C486.502 102.544 484.582 106.288 484.582 111.088C484.582 116.464 487.27 120.592 492.646 123.472C498.022 126.16 506.374 128.944 517.702 131.824C529.222 134.704 538.726 137.68 546.214 140.752C553.702 143.824 560.134 148.624 565.51 155.152C571.078 161.488 573.958 169.936 574.15 180.496C574.15 189.712 571.558 197.968 566.374 205.264C561.382 212.56 554.086 218.32 544.486 222.544C535.078 226.576 524.038 228.592 511.366 228.592ZM654.191 99.568V176.752C654.191 182.128 655.439 186.064 657.935 188.56C660.623 190.864 665.039 192.016 671.183 192.016H689.903V226H664.559C630.575 226 613.583 209.488 613.583 176.464V99.568H594.575V66.448H613.583V26.992H654.191V66.448H689.903V99.568H654.191ZM708.535 145.648C708.535 129.52 711.703 115.216 718.039 102.736C724.567 90.256 733.303 80.656 744.247 73.936C755.383 67.216 767.767 63.856 781.399 63.856C793.303 63.856 803.671 66.256 812.503 71.056C821.527 75.856 828.727 81.904 834.103 89.2V66.448H874.711V226H834.103V202.672C828.919 210.16 821.719 216.4 812.503 221.392C803.479 226.192 793.015 228.592 781.111 228.592C767.671 228.592 755.383 225.136 744.247 218.224C733.303 211.312 724.567 201.616 718.039 189.136C711.703 176.464 708.535 161.968 708.535 145.648ZM834.103 146.224C834.103 136.432 832.183 128.08 828.343 121.168C824.503 114.064 819.319 108.688 812.791 105.04C806.263 101.2 799.255 99.28 791.767 99.28C784.279 99.28 777.367 101.104 771.031 104.752C764.695 108.4 759.511 113.776 755.479 120.88C751.639 127.792 749.719 136.048 749.719 145.648C749.719 155.248 751.639 163.696 755.479 170.992C759.511 178.096 764.695 183.568 771.031 187.408C777.559 191.248 784.471 193.168 791.767 193.168C799.255 193.168 806.263 191.344 812.791 187.696C819.319 183.856 824.503 178.48 828.343 171.568C832.183 164.464 834.103 156.016 834.103 146.224ZM987.243 99.568H959.307V226H918.411V99.568H900.267V66.448H918.411V58.384C918.411 38.8 923.979 24.4 935.115 15.184C946.251 5.96799 963.051 1.64799 985.515 2.224V36.208C975.723 36.016 968.907 37.648 965.067 41.104C961.227 44.56 959.307 50.8 959.307 59.824V66.448H987.243V99.568ZM1003 145.648C1003 129.52 1006.17 115.216 1012.51 102.736C1019.04 90.256 1027.77 80.656 1038.72 73.936C1049.85 67.216 1062.24 63.856 1075.87 63.856C1087.77 63.856 1098.14 66.256 1106.97 71.056C1116 75.856 1123.2 81.904 1128.57 89.2V66.448H1169.18V226H1128.57V202.672C1123.39 210.16 1116.19 216.4 1106.97 221.392C1097.95 226.192 1087.48 228.592 1075.58 228.592C1062.14 228.592 1049.85 225.136 1038.72 218.224C1027.77 211.312 1019.04 201.616 1012.51 189.136C1006.17 176.464 1003 161.968 1003 145.648ZM1128.57 146.224C1128.57 136.432 1126.65 128.08 1122.81 121.168C1118.97 114.064 1113.79 108.688 1107.26 105.04C1100.73 101.2 1093.72 99.28 1086.24 99.28C1078.75 99.28 1071.84 101.104 1065.5 104.752C1059.16 108.4 1053.98 113.776 1049.95 120.88C1046.11 127.792 1044.19 136.048 1044.19 145.648C1044.19 155.248 1046.11 163.696 1049.95 170.992C1053.98 178.096 1059.16 183.568 1065.5 187.408C1072.03 191.248 1078.94 193.168 1086.24 193.168C1093.72 193.168 1100.73 191.344 1107.26 187.696C1113.79 183.856 1118.97 178.48 1122.81 171.568C1126.65 164.464 1128.57 156.016 1128.57 146.224ZM1423.78 87.184C1423.78 97.936 1421.18 108.016 1416 117.424C1411.01 126.832 1403.04 134.416 1392.1 140.176C1381.34 145.936 1367.71 148.816 1351.2 148.816H1317.5V226H1277.18V24.976H1351.2C1366.75 24.976 1380 27.664 1390.94 33.04C1401.89 38.416 1410.05 45.808 1415.42 55.216C1420.99 64.624 1423.78 75.28 1423.78 87.184ZM1349.47 116.272C1360.61 116.272 1368.86 113.776 1374.24 108.784C1379.62 103.6 1382.3 96.4 1382.3 87.184C1382.3 67.6 1371.36 57.808 1349.47 57.808H1317.5V116.272H1349.47ZM1442.04 145.648C1442.04 129.52 1445.2 115.216 1451.54 102.736C1458.07 90.256 1466.8 80.656 1477.75 73.936C1488.88 67.216 1501.27 63.856 1514.9 63.856C1526.8 63.856 1537.17 66.256 1546 71.056C1555.03 75.856 1562.23 81.904 1567.6 89.2V66.448H1608.21V226H1567.6V202.672C1562.42 210.16 1555.22 216.4 1546 221.392C1536.98 226.192 1526.52 228.592 1514.61 228.592C1501.17 228.592 1488.88 225.136 1477.75 218.224C1466.8 211.312 1458.07 201.616 1451.54 189.136C1445.2 176.464 1442.04 161.968 1442.04 145.648ZM1567.6 146.224C1567.6 136.432 1565.68 128.08 1561.84 121.168C1558 114.064 1552.82 108.688 1546.29 105.04C1539.76 101.2 1532.76 99.28 1525.27 99.28C1517.78 99.28 1510.87 101.104 1504.53 104.752C1498.2 108.4 1493.01 113.776 1488.98 120.88C1485.14 127.792 1483.22 136.048 1483.22 145.648C1483.22 155.248 1485.14 163.696 1488.98 170.992C1493.01 178.096 1498.2 183.568 1504.53 187.408C1511.06 191.248 1517.97 193.168 1525.27 193.168C1532.76 193.168 1539.76 191.344 1546.29 187.696C1552.82 183.856 1558 178.48 1561.84 171.568C1565.68 164.464 1567.6 156.016 1567.6 146.224ZM1736.01 64.144C1755.01 64.144 1770.37 70.192 1782.09 82.288C1793.8 94.192 1799.65 110.896 1799.65 132.4V226H1759.33V137.872C1759.33 125.2 1756.17 115.504 1749.83 108.784C1743.49 101.872 1734.85 98.416 1723.91 98.416C1712.77 98.416 1703.94 101.872 1697.41 108.784C1691.08 115.504 1687.91 125.2 1687.91 137.872V226H1647.59V66.448H1687.91V86.32C1693.29 79.408 1700.1 74.032 1708.36 70.192C1716.81 66.16 1726.02 64.144 1736.01 64.144ZM1858.45 47.44C1851.15 47.44 1845.1 45.232 1840.3 40.816C1835.69 36.208 1833.39 30.544 1833.39 23.824C1833.39 17.104 1835.69 11.536 1840.3 7.11999C1845.1 2.51199 1851.15 0.207989 1858.45 0.207989C1865.55 0.207989 1871.41 2.51199 1876.01 7.11999C1880.62 11.536 1882.93 17.104 1882.93 23.824C1882.93 30.544 1880.62 36.208 1876.01 40.816C1871.41 45.232 1865.55 47.44 1858.45 47.44ZM1878.32 252.208C1878.32 269.872 1873.9 282.544 1865.07 290.224C1856.43 298.096 1843.95 302.032 1827.63 302.032H1809.77V267.76H1821.29C1827.44 267.76 1831.76 266.512 1834.25 264.016C1836.75 261.712 1838 257.872 1838 252.496V66.448H1878.32V252.208ZM1938.6 47.44C1931.5 47.44 1925.55 45.232 1920.75 40.816C1916.14 36.208 1913.83 30.544 1913.83 23.824C1913.83 17.104 1916.14 11.536 1920.75 7.11999C1925.55 2.51199 1931.5 0.207989 1938.6 0.207989C1945.71 0.207989 1951.56 2.51199 1956.17 7.11999C1960.97 11.536 1963.37 17.104 1963.37 23.824C1963.37 30.544 1960.97 36.208 1956.17 40.816C1951.56 45.232 1945.71 47.44 1938.6 47.44ZM1958.47 66.448V226H1918.15V66.448H1958.47ZM2219.49 66.448L2172.84 226H2129.35L2100.26 114.544L2071.17 226H2027.4L1980.45 66.448H2021.35L2049.57 187.984L2080.1 66.448H2122.73L2152.68 187.696L2180.9 66.448H2219.49ZM2230.94 145.648C2230.94 129.52 2234.11 115.216 2240.45 102.736C2246.97 90.256 2255.71 80.656 2266.65 73.936C2277.79 67.216 2290.17 63.856 2303.81 63.856C2315.71 63.856 2326.08 66.256 2334.91 71.056C2343.93 75.856 2351.13 81.904 2356.51 89.2V66.448H2397.12V226H2356.51V202.672C2351.33 210.16 2344.13 216.4 2334.91 221.392C2325.89 226.192 2315.42 228.592 2303.52 228.592C2290.08 228.592 2277.79 225.136 2266.65 218.224C2255.71 211.312 2246.97 201.616 2240.45 189.136C2234.11 176.464 2230.94 161.968 2230.94 145.648ZM2356.51 146.224C2356.51 136.432 2354.59 128.08 2350.75 121.168C2346.91 114.064 2341.73 108.688 2335.2 105.04C2328.67 101.2 2321.66 99.28 2314.17 99.28C2306.69 99.28 2299.77 101.104 2293.44 104.752C2287.1 108.4 2281.92 113.776 2277.89 120.88C2274.05 127.792 2272.13 136.048 2272.13 145.648C2272.13 155.248 2274.05 163.696 2277.89 170.992C2281.92 178.096 2287.1 183.568 2293.44 187.408C2299.97 191.248 2306.88 193.168 2314.17 193.168C2321.66 193.168 2328.67 191.344 2335.2 187.696C2341.73 183.856 2346.91 178.48 2350.75 171.568C2354.59 164.464 2356.51 156.016 2356.51 146.224ZM2476.82 12.88V226H2436.5V12.88H2476.82ZM2506.29 145.648C2506.29 129.52 2509.45 115.216 2515.79 102.736C2522.32 90.256 2531.05 80.656 2542 73.936C2553.13 67.216 2565.52 63.856 2579.15 63.856C2591.05 63.856 2601.42 66.256 2610.25 71.056C2619.28 75.856 2626.48 81.904 2631.85 89.2V66.448H2672.46V226H2631.85V202.672C2626.67 210.16 2619.47 216.4 2610.25 221.392C2601.23 226.192 2590.77 228.592 2578.86 228.592C2565.42 228.592 2553.13 225.136 2542 218.224C2531.05 211.312 2522.32 201.616 2515.79 189.136C2509.45 176.464 2506.29 161.968 2506.29 145.648ZM2631.85 146.224C2631.85 136.432 2629.93 128.08 2626.09 121.168C2622.25 114.064 2617.07 108.688 2610.54 105.04C2604.01 101.2 2597.01 99.28 2589.52 99.28C2582.03 99.28 2575.12 101.104 2568.78 104.752C2562.45 108.4 2557.26 113.776 2553.23 120.88C2549.39 127.792 2547.47 136.048 2547.47 145.648C2547.47 155.248 2549.39 163.696 2553.23 170.992C2557.26 178.096 2562.45 183.568 2568.78 187.408C2575.31 191.248 2582.22 193.168 2589.52 193.168C2597.01 193.168 2604.01 191.344 2610.54 187.696C2617.07 183.856 2622.25 178.48 2626.09 171.568C2629.93 164.464 2631.85 156.016 2631.85 146.224ZM2719.9 24.976H2762.24L2731.14 97.552H2703.49L2719.9 24.976ZM2852.21 228.592C2839.15 228.592 2827.44 226.288 2817.07 221.68C2806.71 216.88 2798.45 210.448 2792.31 202.384C2786.35 194.32 2783.09 185.392 2782.51 175.6H2823.12C2823.89 181.744 2826.87 186.832 2832.05 190.864C2837.43 194.896 2844.05 196.912 2851.92 196.912C2859.6 196.912 2865.55 195.376 2869.78 192.304C2874.19 189.232 2876.4 185.296 2876.4 180.496C2876.4 175.312 2873.71 171.472 2868.34 168.976C2863.15 166.288 2854.8 163.408 2843.28 160.336C2831.38 157.456 2821.59 154.48 2813.91 151.408C2806.42 148.336 2799.89 143.632 2794.32 137.296C2788.95 130.96 2786.26 122.416 2786.26 111.664C2786.26 102.832 2788.75 94.768 2793.75 87.472C2798.93 80.176 2806.23 74.416 2815.63 70.192C2825.23 65.968 2836.47 63.856 2849.33 63.856C2868.34 63.856 2883.51 68.656 2894.83 78.256C2906.16 87.664 2912.4 100.432 2913.55 116.56H2874.96C2874.39 110.224 2871.7 105.232 2866.9 101.584C2862.29 97.744 2856.05 95.824 2848.18 95.824C2840.88 95.824 2835.22 97.168 2831.19 99.856C2827.35 102.544 2825.43 106.288 2825.43 111.088C2825.43 116.464 2828.11 120.592 2833.49 123.472C2838.87 126.16 2847.22 128.944 2858.55 131.824C2870.07 134.704 2879.57 137.68 2887.06 140.752C2894.55 143.824 2900.98 148.624 2906.35 155.152C2911.92 161.488 2914.8 169.936 2914.99 180.496C2914.99 189.712 2912.4 197.968 2907.22 205.264C2902.23 212.56 2894.93 218.32 2885.33 222.544C2875.92 226.576 2864.88 228.592 2852.21 228.592ZM3159.03 82.576C3159.03 99.856 3153.36 113.776 3142.03 124.336C3130.71 134.896 3113.71 140.176 3091.06 140.176H3050.45V226H3030.29V24.688H3091.06C3113.52 24.688 3130.42 29.968 3141.75 40.528C3153.27 51.088 3159.03 65.104 3159.03 82.576ZM3091.06 122.896C3122.55 122.896 3138.29 109.456 3138.29 82.576C3138.29 69.136 3134.55 58.96 3127.06 52.048C3119.57 45.136 3107.57 41.68 3091.06 41.68H3050.45V122.896H3091.06ZM3261.68 228.304C3246.9 228.304 3233.56 225.04 3221.65 218.512C3209.94 211.792 3200.63 202.384 3193.72 190.288C3187 178 3183.64 163.696 3183.64 147.376C3183.64 131.056 3187.09 116.848 3194 104.752C3200.92 92.464 3210.32 83.056 3222.23 76.528C3234.13 69.808 3247.48 66.448 3262.26 66.448C3277.04 66.448 3290.39 69.808 3302.29 76.528C3314.39 83.056 3323.8 92.464 3330.52 104.752C3337.43 116.848 3340.88 131.056 3340.88 147.376C3340.88 163.504 3337.43 177.712 3330.52 190C3323.6 202.288 3314.1 211.792 3302 218.512C3289.91 225.04 3276.47 228.304 3261.68 228.304ZM3261.68 210.736C3272.05 210.736 3281.65 208.432 3290.48 203.824C3299.32 199.024 3306.42 191.92 3311.8 182.512C3317.36 172.912 3320.15 161.2 3320.15 147.376C3320.15 133.552 3317.46 121.936 3312.08 112.528C3306.71 102.928 3299.6 95.824 3290.77 91.216C3281.94 86.416 3272.34 84.016 3261.97 84.016C3251.6 84.016 3242 86.416 3233.17 91.216C3224.34 95.824 3217.24 102.928 3211.86 112.528C3206.68 121.936 3204.08 133.552 3204.08 147.376C3204.08 161.2 3206.68 172.912 3211.86 182.512C3217.24 191.92 3224.24 199.024 3232.88 203.824C3241.72 208.432 3251.32 210.736 3261.68 210.736ZM3397.79 96.688C3402.21 86.896 3408.93 79.312 3417.95 73.936C3427.17 68.56 3438.4 65.872 3451.65 65.872V86.896H3446.18C3431.59 86.896 3419.87 90.832 3411.04 98.704C3402.21 106.576 3397.79 119.728 3397.79 138.16V226H3377.63V68.752H3397.79V96.688ZM3508.19 85.744V183.376C3508.19 192.976 3510.01 199.6 3513.66 203.248C3517.31 206.896 3523.74 208.72 3532.95 208.72H3551.39V226H3529.79C3515.58 226 3505.02 222.736 3498.11 216.208C3491.19 209.488 3487.74 198.544 3487.74 183.376V85.744H3465.85V68.752H3487.74V29.296H3508.19V68.752H3551.39V85.744H3508.19ZM3646.55 85.744H3609.98V226H3589.82V85.744H3567.93V68.752H3589.82V57.808C3589.82 40.72 3594.14 28.144 3602.78 20.08C3611.61 12.016 3625.82 7.98399 3645.4 7.98399V25.264C3632.35 25.264 3623.13 27.76 3617.75 32.752C3612.57 37.744 3609.98 46.096 3609.98 57.808V68.752H3646.55V85.744ZM3747.12 228.304C3732.34 228.304 3718.99 225.04 3707.09 218.512C3695.38 211.792 3686.07 202.384 3679.15 190.288C3672.43 178 3669.07 163.696 3669.07 147.376C3669.07 131.056 3672.53 116.848 3679.44 104.752C3686.35 92.464 3695.76 83.056 3707.67 76.528C3719.57 69.808 3732.91 66.448 3747.7 66.448C3762.48 66.448 3775.83 69.808 3787.73 76.528C3799.83 83.056 3809.23 92.464 3815.95 104.752C3822.87 116.848 3826.32 131.056 3826.32 147.376C3826.32 163.504 3822.87 177.712 3815.95 190C3809.04 202.288 3799.54 211.792 3787.44 218.512C3775.35 225.04 3761.91 228.304 3747.12 228.304ZM3747.12 210.736C3757.49 210.736 3767.09 208.432 3775.92 203.824C3784.75 199.024 3791.86 191.92 3797.23 182.512C3802.8 172.912 3805.59 161.2 3805.59 147.376C3805.59 133.552 3802.9 121.936 3797.52 112.528C3792.15 102.928 3785.04 95.824 3776.21 91.216C3767.38 86.416 3757.78 84.016 3747.41 84.016C3737.04 84.016 3727.44 86.416 3718.61 91.216C3709.78 95.824 3702.67 102.928 3697.3 112.528C3692.11 121.936 3689.52 133.552 3689.52 147.376C3689.52 161.2 3692.11 172.912 3697.3 182.512C3702.67 191.92 3709.68 199.024 3718.32 203.824C3727.15 208.432 3736.75 210.736 3747.12 210.736ZM3883.23 12.88V226H3863.07V12.88H3883.23ZM3938.96 39.088C3934.93 39.088 3931.48 37.648 3928.6 34.768C3925.72 31.888 3924.28 28.336 3924.28 24.112C3924.28 19.888 3925.72 16.432 3928.6 13.744C3931.48 10.864 3934.93 9.42399 3938.96 9.42399C3943 9.42399 3946.45 10.864 3949.33 13.744C3952.21 16.432 3953.65 19.888 3953.65 24.112C3953.65 28.336 3952.21 31.888 3949.33 34.768C3946.45 37.648 3943 39.088 3938.96 39.088ZM3949.04 68.752V226H3928.88V68.752H3949.04ZM4063.53 228.304C4048.74 228.304 4035.4 225.04 4023.5 218.512C4011.78 211.792 4002.47 202.384 3995.56 190.288C3988.84 178 3985.48 163.696 3985.48 147.376C3985.48 131.056 3988.94 116.848 3995.85 104.752C4002.76 92.464 4012.17 83.056 4024.07 76.528C4035.98 69.808 4049.32 66.448 4064.1 66.448C4078.89 66.448 4092.23 69.808 4104.14 76.528C4116.23 83.056 4125.64 92.464 4132.36 104.752C4139.27 116.848 4142.73 131.056 4142.73 147.376C4142.73 163.504 4139.27 177.712 4132.36 190C4125.45 202.288 4115.94 211.792 4103.85 218.512C4091.75 225.04 4078.31 228.304 4063.53 228.304ZM4063.53 210.736C4073.9 210.736 4083.5 208.432 4092.33 203.824C4101.16 199.024 4108.26 191.92 4113.64 182.512C4119.21 172.912 4121.99 161.2 4121.99 147.376C4121.99 133.552 4119.3 121.936 4113.93 112.528C4108.55 102.928 4101.45 95.824 4092.62 91.216C4083.78 86.416 4074.18 84.016 4063.82 84.016C4053.45 84.016 4043.85 86.416 4035.02 91.216C4026.18 95.824 4019.08 102.928 4013.7 112.528C4008.52 121.936 4005.93 133.552 4005.93 147.376C4005.93 161.2 4008.52 172.912 4013.7 182.512C4019.08 191.92 4026.09 199.024 4034.73 203.824C4043.56 208.432 4053.16 210.736 4063.53 210.736Z" fill="black"/>
</svg>
